PathFileType	4	(X/Y/Z)	Patient4_TMGait_0pt4_02_right_40.trc.trc
DataRate	CameraRate	NumFrames	NumMarkers	Units	OrigDataRate	OrigDataStartFrame	OrigNumFrames
76.923076923077	76.923076923077	4	33	mm	76.923076923077	106	       141
Frame#	Time	Sacral			L.Shoulder			Chest			R.Shoulder			Neck			R.ASIS			L.ASIS			R.Thigh.Superior			R.Thigh.Lateral			R.Thigh.Inferior			R.Patella			L.Thigh.Superior			L.Thigh.Lateral			L.Thigh.Inferior			L.Patella			L.Shank.Superior			L.Shank.Lateral			L.Shank.Inferior			R.Shank.Superior			R.Shank.Lateral			R.Shank.Inferior			R.Heel			R.Midfoot.Superior			R.Midfoot.Lateral			R.Toe			L.Heel			L.Midfoot.Lateral			L.Midfoot.Superior			L.Toe			L.Elbow			L.Wrist			R.Elbow			R.Wrist			
		X1	Y1	Z1	X2	Y2	Z2	X3	Y3	Z3	X4	Y4	Z4	X5	Y5	Z5	X6	Y6	Z6	X7	Y7	Z7	X8	Y8	Z8	X9	Y9	Z9	X10	Y10	Z10	X11	Y11	Z11	X12	Y12	Z12	X13	Y13	Z13	X14	Y14	Z14	X15	Y15	Z15	X16	Y16	Z16	X17	Y17	Z17	X18	Y18	Z18	X19	Y19	Z19	X20	Y20	Z20	X21	Y21	Z21	X22	Y22	Z22	X23	Y23	Z23	X24	Y24	Z24	X25	Y25	Z25	X26	Y26	Z26	X27	Y27	Z27	X28	Y28	Z28	X29	Y29	Z29	X30	Y30	Z30	X31	Y31	Z31	X32	Y32	Z32	X33	Y33	Z33	

106	54.135000000000	829.720990072830	1008.054309407182	442.425482287641	993.026545237888	1435.965750090682	246.287375633229	1095.047735895807	1379.587217845078	411.897756030568	1004.219332115932	1450.842577524207	583.233443969308	966.673822902541	1502.239041343446	403.549122616608	1060.486886729754	956.846159076722	561.532509950846	1049.361761345515	968.693234210658	286.756153923124	1139.570286303904	779.482919098420	541.239160531147	1096.878578615948	663.091161762134	625.199434919049	1183.317530091975	617.333624977310	547.986317201911	1206.137225028421	515.619595629376	575.898641834927	1077.165009340150	745.020223184437	319.045780260909	971.786553227162	638.120847453264	259.004327328342	1047.049138045739	552.521575128610	319.553928069593	1039.204055894549	485.924238306112	330.088810077421	1011.448147846534	415.839250126029	323.351306069498	915.802170036941	304.355116705309	277.198296036658	966.010072816403	192.461560072229	348.838567844616	1148.958105193802	432.738775278757	591.531265112387	1049.170613152794	367.180061474837	665.862969576650	1060.584771100334	255.244183715578	622.241829641645	884.397430258549	136.625911907899	617.200810334909	1065.385983076627	135.200025500301	644.685264400049	964.267909362613	101.805152716372	686.839573344236	1162.904695056810	49.086596405844	667.941860488834	834.850257679073	38.919008020097	398.222053249281	904.799066377183	35.484874289563	313.920297267166	989.740431241426	96.135225527127	336.703979939882	1116.594538265262	43.534915122997	302.300498323177	1037.911912829784	1090.784376921887	115.398650462997	1230.251627843224	910.740274766655	126.278167254128	967.908302138000	1105.618873675990	709.426745419865	1042.783552621057	854.434730562806	722.065070554031	
107	54.148000000000	829.028532658039	1008.018069676850	442.015249735794	994.868282691457	1435.617021803951	246.622110064053	1095.877604994282	1378.759857191847	412.734188139284	1004.411588294065	1450.245517829461	583.656039608949	967.834561753365	1501.832023060430	403.931382571504	1059.188897781814	956.529061348004	562.230387626248	1049.097406520371	967.922193695708	287.497366915552	1138.102816934829	779.498056895567	541.278422756304	1096.490661764258	663.571169100524	626.051323414685	1181.829038112826	617.626151055597	547.623689281274	1206.574491595126	517.738511929101	575.537866466758	1075.153938522735	743.939665743300	320.698891740282	969.458879459297	637.913395172225	259.235391545877	1042.950840096414	551.748822992311	320.859930485357	1034.366079198563	485.447159348095	331.318296301744	1006.731072629831	415.562204625505	324.188961070889	911.437584273485	304.139638505836	277.307243816681	960.993504482036	192.244748612769	349.347838258385	1152.878395958074	433.806438286454	591.978304409155	1057.381793751442	363.684338730457	667.673344675170	1073.629106907970	252.379420263175	623.803407527327	903.442497727202	125.242836723906	620.679454180673	1084.481943153932	132.590793725334	646.247498343811	985.623498638042	94.719060260385	689.790663780561	1186.230815221708	51.586297845435	669.065761142302	829.568058944110	38.764790855219	398.256249780061	899.500035992643	35.424501672577	313.920444863116	984.408724566482	96.098451807121	336.859751196834	1111.294330851852	43.648444341428	302.360485510637	1040.934556551702	1091.187566629480	114.744836274985	1241.388837765510	920.441408532956	126.831442035055	957.269033520364	1106.671835293181	709.446577515047	1019.525395199248	852.455688409413	726.321029167195	
108	54.161000000000	828.372689345609	1007.977507645305	441.660675122276	996.947575397514	1435.194671106282	247.163879915279	1096.860728833121	1377.831459502595	413.808645718658	1004.733779823528	1449.629556670597	584.261023446307	969.165258881427	1501.377207241244	404.489949357321	1057.807077649350	956.038057341363	563.144848749422	1048.742729534858	966.974225122569	288.509499516068	1136.306905055946	779.227700556335	541.594173207968	1095.575388212749	663.819632567735	627.107892319481	1179.883021160891	617.632173431597	547.562770933069	1206.460601920404	519.685356542936	575.412986637106	1073.183034920357	742.847055722402	322.327884046937	967.156058365317	637.715612684426	259.500506618810	1038.920750718691	551.000326473711	322.109097357495	1029.646903367390	484.976083770883	332.439750193669	1002.073338517916	415.284232297464	324.968547466575	907.069939864615	303.957316319580	277.403111556428	955.969631721239	192.032239427584	349.804359969741	1156.403719142080	434.829107950911	592.472860416837	1065.356902508481	360.163549308442	669.266230967767	1086.613265945670	249.790383791792	625.008981991437	923.029445365058	114.151968179987	623.336342018211	1103.632698473461	130.565157181537	647.273352122750	1007.266151242423	88.031325043729	691.950500709633	1209.467822635258	54.986892193934	669.577991102441	824.282506925583	38.632416910353	398.273035856057	894.200273276884	35.362383043084	313.913245585306	979.076740260450	96.061147234306	337.000859143886	1105.989280148177	43.758905702976	302.427630478237	1043.727249211229	1091.478843384754	114.293575821709	1251.789382427672	930.430677769922	127.623299530670	946.884769983077	1108.030229838799	709.525503657193	997.254289061432	851.699337350979	730.117558838988	
109	54.174000000000	827.769536881488	1007.949423076772	441.371827160816	999.254370319263	1434.716406831841	247.910083374319	1097.984246277955	1376.832636061972	415.118088078537	1005.170751033253	1449.031795930693	585.037909634152	970.650275608639	1500.896635148807	405.210295800613	1056.368357073909	955.408820665752	564.283674825987	1048.378697352018	965.926403640741	289.767030505558	1134.236001500000	778.734279246076	542.211959325694	1094.173277677694	663.840733538942	628.341604698941	1177.604919926664	617.419752902574	547.842138100532	1205.874954557178	521.478692633119	575.541759850297	1071.285351153513	741.756583492868	323.907628706920	964.885351779194	637.531549599901	259.824966304769	1035.000520903794	550.281488733784	323.305530166564	1025.092796813122	484.509487427410	333.465021609325	997.519335367685	415.005020987551	325.702370284650	902.724211589556	303.820158241896	277.502287719445	950.954531053011	191.827486662688	350.211282706283	1159.546344523552	435.827433143470	593.005724164601	1072.994218831042	356.711387247858	670.564669542453	1099.346588429796	247.568496233692	625.801955962753	942.846684628273	103.627055633750	625.022242594643	1122.516036951317	129.198181686527	647.713106098324	1028.820255283339	81.902481269097	693.201539207235	1232.190692922379	59.258499957978	669.464196960185	818.996368645568	38.533766926966	398.270448920761	888.902772431959	35.305203748373	313.899640836761	973.752651103964	96.024207552023	337.125362763243	1100.683587129925	43.854470566441	302.497904901761	1046.343860452713	1091.675332113463	114.053651228448	1261.409151620372	940.595433376767	128.669280328217	936.877237133647	1109.711859928835	709.699317553323	976.146440239085	852.003803329495	733.476595732649	
